# xmcd
#
# Track frame offsets:
#  182
#  18365
#  31827
#  53397
#  65357
#  79722
#  89900
#  105367
#  120965
#  137302
#  147087
#
# Disc length: 2165 seconds
#
# Revision: 0
# Processed by: cddbd v1.5.1PL2 Copyright (c) Steve Scherf et al.
# Submitted via: Collectorz.com_Music_Collector 6.10
#
DISCID=7b08730b
DTITLE=Lightnin' Hopkins - Los Angeles Blues
DYEAR=1995
DGENRE=Blues
TTITLE0=California Mudslide
TTITLE1=Rosie Mae
TTITLE2=Los Angeles Blues
TTITLE3=Easy On Your Heels
TTITLE4=New Santa Fe
TTITLE5=Jesus, Would You Come By Here
TTITLE6=No Education
TTITLE7=Antoinette's Blues
TTITLE8=Change My Way Of Living
TTITLE9=Los Angeles Boogie
TTITLE10=Call On My Baby
EXTD=
EXTT0=
EXTT1=
EXTT2=
EXTT3=
EXTT4=
EXTT5=
EXTT6=
EXTT7=
EXTT8=
EXTT9=
EXTT10=
PLAYORDER=
